M48
;Layer_Color=6321
;FILE_FORMAT=2:5
INCH,LZ
;TYPE=PLATED
T1F00S00C0.01200
T2F00S00C0.02756
T3F00S00C0.03200
T4F00S00C0.03937
T5F00S00C0.05118
%
T01
X01465Y01295
X01595Y01245
X01615
X01635
X01695Y0131
X01655Y0108
X0159
X01805Y0105
X0219Y01055
X0215Y0129
X02335
X02135Y01545
X0207Y01485
X01855Y01595
Y0176
X01755Y0195
X0173Y02145
X0185
X0192
X02015
X02095
X01945Y0223
X0185
X01755Y02325
X01705Y02355
X01695Y02395
X01765Y024
X0178Y025
X0179Y02605
X01695Y0259
X01875Y0255
X01935Y02495
X01895Y0243
X02025Y02435
X0209Y02485
X02185Y025
Y02405
X02195Y02655
X022775Y026625
X0233Y02675
X02185Y0276
X0208Y0277
Y0283
X0201Y02865
X02015Y02785
X01955Y02735
X0192Y02685
X02025Y0257
X0193Y029
X0178Y02865
Y02785
X0212Y0296
X02085Y0189
X02165Y01805
X023Y01795
X02345Y01635
T02
X0182394Y02045
X0201606
T03
X022765Y0106
X023765
Y0123
X022765
Y014
X023765
Y0157136
X022765
Y0174
X023765
Y0191227
X022765
Y0208272
X023765
Y0225318
X022765
Y0242363
X023765
Y0259409
X022765
Y02765
X023765
Y02935
X022765
T04
X01745Y0152
X0196783Y0141909
X02145
Y01675
X0196783
X01745Y0172
Y0162
T05
X01535Y015
Y017
Y019
Y021
Y023
Y025
Y027
X0154Y029
M30
