G04 Layer_Color=20142*
%FSLAX25Y25*%
%MOIN*%
G70*
G01*
G75*
%ADD46R,0.04540X0.06115*%
%ADD47R,0.06312X0.03950*%
%ADD48R,0.03950X0.06312*%
%ADD49R,0.10150X0.08280*%
%ADD50R,0.06607X0.09068*%
%ADD51R,0.02572X0.06233*%
%ADD52O,0.02572X0.07887*%
%ADD53R,0.06115X0.04540*%
%ADD54C,0.06800*%
%ADD55R,0.05524X0.05524*%
%ADD56C,0.05524*%
%ADD57C,0.10800*%
%ADD58R,0.10800X0.10800*%
%ADD59C,0.08674*%
%ADD60R,0.08800X0.06800*%
G04:AMPARAMS|DCode=61|XSize=68mil|YSize=88mil|CornerRadius=19mil|HoleSize=0mil|Usage=FLASHONLY|Rotation=90.000|XOffset=0mil|YOffset=0mil|HoleType=Round|Shape=RoundedRectangle|*
%AMROUNDEDRECTD61*
21,1,0.06800,0.05000,0,0,90.0*
21,1,0.03000,0.08800,0,0,90.0*
1,1,0.03800,0.02500,0.01500*
1,1,0.03800,0.02500,-0.01500*
1,1,0.03800,-0.02500,-0.01500*
1,1,0.03800,-0.02500,0.01500*
%
%ADD61ROUNDEDRECTD61*%
%ADD62C,0.03200*%
%ADD63C,0.02800*%
D46*
X172449Y181500D02*
D03*
X178551D02*
D03*
X203051Y185000D02*
D03*
X196949D02*
D03*
X179551Y139500D02*
D03*
X173449D02*
D03*
X218551Y244500D02*
D03*
X212449D02*
D03*
X218551Y252833D02*
D03*
X212449D02*
D03*
X218551Y261167D02*
D03*
X212449D02*
D03*
X218551Y270500D02*
D03*
X212449D02*
D03*
X192949Y278500D02*
D03*
X199051D02*
D03*
X192949Y286500D02*
D03*
X199051D02*
D03*
X186551Y278500D02*
D03*
X180449D02*
D03*
X186551Y286500D02*
D03*
X180449D02*
D03*
D47*
X161500Y133638D02*
D03*
Y126638D02*
D03*
X193250Y225638D02*
D03*
Y218638D02*
D03*
X185125Y225638D02*
D03*
Y218638D02*
D03*
X201375Y225638D02*
D03*
Y218638D02*
D03*
X177000Y225638D02*
D03*
Y218638D02*
D03*
X209500Y225638D02*
D03*
Y218638D02*
D03*
X169000Y133638D02*
D03*
Y126638D02*
D03*
D48*
X171138Y108000D02*
D03*
X164138D02*
D03*
X171138Y115000D02*
D03*
X164138D02*
D03*
X194138Y294500D02*
D03*
X187138D02*
D03*
X197362Y129000D02*
D03*
X204362D02*
D03*
D49*
X189043Y106236D02*
D03*
X211957D02*
D03*
D50*
X210244Y115311D02*
D03*
X190756D02*
D03*
D51*
X195382Y116700D02*
D03*
X197941D02*
D03*
X205618D02*
D03*
X200500D02*
D03*
X203059D02*
D03*
D52*
X181984Y236114D02*
D03*
X184543D02*
D03*
X187102D02*
D03*
X189661D02*
D03*
X192220D02*
D03*
X194780D02*
D03*
X197339D02*
D03*
X199898D02*
D03*
X202457D02*
D03*
X205016D02*
D03*
X181984Y262886D02*
D03*
X184543D02*
D03*
X187102D02*
D03*
X189661D02*
D03*
X192220D02*
D03*
X194780D02*
D03*
X197339D02*
D03*
X199898D02*
D03*
X202457D02*
D03*
X205016D02*
D03*
D53*
X153500Y133051D02*
D03*
Y126949D02*
D03*
D54*
X237650Y123000D02*
D03*
X227650D02*
D03*
X237650Y225318D02*
D03*
X227650D02*
D03*
X237650Y242363D02*
D03*
X227650D02*
D03*
Y106000D02*
D03*
X237650D02*
D03*
X227650Y208272D02*
D03*
X237650D02*
D03*
Y174000D02*
D03*
X227650D02*
D03*
Y259409D02*
D03*
X237650D02*
D03*
Y140000D02*
D03*
X227650D02*
D03*
Y191227D02*
D03*
X237650D02*
D03*
X227650Y157136D02*
D03*
X237650D02*
D03*
X227650Y293500D02*
D03*
X237650D02*
D03*
Y276500D02*
D03*
X227650D02*
D03*
D55*
X201606Y204500D02*
D03*
D56*
X182394D02*
D03*
D57*
X153500Y210000D02*
D03*
Y190000D02*
D03*
Y170000D02*
D03*
Y230000D02*
D03*
Y250000D02*
D03*
Y270000D02*
D03*
X154000Y290000D02*
D03*
D58*
X153500Y150000D02*
D03*
D59*
X214500Y167500D02*
D03*
X196783D02*
D03*
X214500Y141909D02*
D03*
X196783D02*
D03*
D60*
X174500Y152000D02*
D03*
D61*
Y162000D02*
D03*
Y172000D02*
D03*
D62*
X185500Y159500D02*
D03*
X230000Y179500D02*
D03*
X234500Y163500D02*
D03*
X218500Y250000D02*
D03*
X227750Y266250D02*
D03*
X163500Y124500D02*
D03*
X161500D02*
D03*
X159500D02*
D03*
X187500Y255000D02*
D03*
X169500Y239500D02*
D03*
X218500Y240500D02*
D03*
X219500Y265500D02*
D03*
X218500Y276000D02*
D03*
X178000Y286500D02*
D03*
X192000Y268500D02*
D03*
X201500Y278500D02*
D03*
X178000D02*
D03*
X185000Y223000D02*
D03*
X194500D02*
D03*
X165500Y108000D02*
D03*
X169500Y131000D02*
D03*
D63*
X201000Y286500D02*
D03*
X193000Y290000D02*
D03*
M02*
