G04 Layer_Physical_Order=2*
G04 Layer_Color=11436288*
%FSLAX25Y25*%
%MOIN*%
G70*
G01*
G75*
%ADD18C,0.01500*%
%ADD19C,0.00500*%
%ADD20C,0.01000*%
%ADD21C,0.03000*%
%ADD22C,0.06000*%
%ADD23R,0.04724X0.04724*%
%ADD24C,0.04724*%
%ADD25C,0.10000*%
%ADD26R,0.10000X0.10000*%
%ADD27C,0.07874*%
%ADD28R,0.08000X0.06000*%
G04:AMPARAMS|DCode=29|XSize=60mil|YSize=80mil|CornerRadius=15mil|HoleSize=0mil|Usage=FLASHONLY|Rotation=90.000|XOffset=0mil|YOffset=0mil|HoleType=Round|Shape=RoundedRectangle|*
%AMROUNDEDRECTD29*
21,1,0.06000,0.05000,0,0,90.0*
21,1,0.03000,0.08000,0,0,90.0*
1,1,0.03000,0.02500,0.01500*
1,1,0.03000,0.02500,-0.01500*
1,1,0.03000,-0.02500,-0.01500*
1,1,0.03000,-0.02500,0.01500*
%
%ADD29ROUNDEDRECTD29*%
%ADD30C,0.02400*%
%ADD31C,0.02000*%
%ADD32R,0.09449X0.12992*%
%ADD33R,0.09449X0.03937*%
%ADD34R,0.07480X0.05315*%
%ADD35R,0.04724X0.03937*%
%ADD36R,0.04606X0.07087*%
%ADD37R,0.06102X0.05315*%
%ADD38R,0.03347X0.04331*%
%ADD39R,0.02953X0.04331*%
%ADD40R,0.15000X0.09000*%
%ADD41R,0.20500X0.14000*%
G36*
X241500Y294658D02*
X241000Y294558D01*
X240707Y295265D01*
X240146Y295996D01*
X239415Y296557D01*
X238564Y296910D01*
X237650Y297030D01*
X236736Y296910D01*
X235885Y296557D01*
X235154Y295996D01*
X234593Y295265D01*
X234240Y294414D01*
X234120Y293500D01*
X234240Y292586D01*
X234593Y291735D01*
X235154Y291004D01*
X235885Y290443D01*
X236736Y290090D01*
X237650Y289970D01*
X238564Y290090D01*
X239415Y290443D01*
X240146Y291004D01*
X240707Y291735D01*
X241000Y292442D01*
X241500Y292342D01*
Y277658D01*
X241000Y277558D01*
X240707Y278265D01*
X240146Y278996D01*
X239415Y279557D01*
X238564Y279910D01*
X237650Y280030D01*
X236736Y279910D01*
X235885Y279557D01*
X235154Y278996D01*
X234593Y278265D01*
X234240Y277414D01*
X234120Y276500D01*
X234240Y275586D01*
X234593Y274735D01*
X235154Y274004D01*
X235885Y273443D01*
X236736Y273090D01*
X236885Y273071D01*
Y267467D01*
X232959Y263541D01*
X232793Y263293D01*
X232735Y263000D01*
Y239265D01*
X230183D01*
X230013Y239765D01*
X230146Y239867D01*
X230707Y240598D01*
X231060Y241449D01*
X231180Y242363D01*
X231060Y243277D01*
X230707Y244128D01*
X230146Y244859D01*
X229415Y245420D01*
X228564Y245773D01*
X227650Y245893D01*
X226736Y245773D01*
X225885Y245420D01*
X225154Y244859D01*
X224593Y244128D01*
X224240Y243277D01*
X224120Y242363D01*
X224240Y241449D01*
X224593Y240598D01*
X225154Y239867D01*
X225287Y239765D01*
X225117Y239265D01*
X220817D01*
X220125Y239956D01*
X220233Y240500D01*
X220101Y241163D01*
X219726Y241726D01*
X219163Y242101D01*
X218500Y242233D01*
X217837Y242101D01*
X217274Y241726D01*
X216899Y241163D01*
X216767Y240500D01*
X216899Y239837D01*
X217274Y239274D01*
X217837Y238899D01*
X218500Y238767D01*
X219044Y238875D01*
X219959Y237959D01*
X220207Y237793D01*
X220500Y237735D01*
X220500Y237735D01*
X232735D01*
Y229468D01*
X232793Y229175D01*
X232959Y228927D01*
X234684Y227202D01*
X234593Y227083D01*
X234240Y226231D01*
X234120Y225318D01*
X234240Y224404D01*
X234593Y223552D01*
X235154Y222821D01*
X235885Y222260D01*
X236736Y221908D01*
X237650Y221787D01*
X238564Y221908D01*
X239415Y222260D01*
X240146Y222821D01*
X240707Y223552D01*
X241000Y224259D01*
X241500Y224160D01*
Y209430D01*
X241000Y209330D01*
X240707Y210037D01*
X240146Y210768D01*
X239415Y211329D01*
X238564Y211682D01*
X237650Y211802D01*
X236736Y211682D01*
X235885Y211329D01*
X235154Y210768D01*
X234593Y210037D01*
X234240Y209186D01*
X234120Y208272D01*
X234240Y207358D01*
X234593Y206507D01*
X235154Y205776D01*
X235885Y205215D01*
X236736Y204862D01*
X237650Y204742D01*
X238564Y204862D01*
X239415Y205215D01*
X240146Y205776D01*
X240707Y206507D01*
X241000Y207214D01*
X241500Y207114D01*
Y192385D01*
X241000Y192286D01*
X240707Y192992D01*
X240146Y193723D01*
X239415Y194284D01*
X238564Y194637D01*
X237650Y194757D01*
X236736Y194637D01*
X235885Y194284D01*
X235766Y194193D01*
X232765Y197194D01*
Y212000D01*
X232706Y212293D01*
X232541Y212541D01*
X228415Y216667D01*
Y221888D01*
X228564Y221908D01*
X229415Y222260D01*
X230146Y222821D01*
X230707Y223552D01*
X231060Y224404D01*
X231180Y225318D01*
X231060Y226231D01*
X230707Y227083D01*
X230146Y227814D01*
X229415Y228375D01*
X228564Y228727D01*
X227650Y228848D01*
X226736Y228727D01*
X225885Y228375D01*
X225154Y227814D01*
X224593Y227083D01*
X224240Y226231D01*
X224120Y225318D01*
X224240Y224404D01*
X224593Y223552D01*
X225154Y222821D01*
X225885Y222260D01*
X226736Y221908D01*
X226885Y221888D01*
Y216350D01*
X226943Y216057D01*
X227109Y215809D01*
X231235Y211683D01*
Y210069D01*
X230735Y209969D01*
X230707Y210037D01*
X230146Y210768D01*
X229415Y211329D01*
X228564Y211682D01*
X227650Y211802D01*
X226736Y211682D01*
X225885Y211329D01*
X225154Y210768D01*
X224593Y210037D01*
X224240Y209186D01*
X224120Y208272D01*
X224240Y207358D01*
X224593Y206507D01*
X225154Y205776D01*
X225885Y205215D01*
X226736Y204862D01*
X227650Y204742D01*
X228564Y204862D01*
X229415Y205215D01*
X230146Y205776D01*
X230707Y206507D01*
X230735Y206575D01*
X231235Y206475D01*
Y196877D01*
X231294Y196585D01*
X231459Y196336D01*
X234684Y193112D01*
X234593Y192992D01*
X234240Y192141D01*
X234120Y191227D01*
X234240Y190314D01*
X234593Y189462D01*
X235154Y188731D01*
X235885Y188170D01*
X236736Y187817D01*
X237650Y187697D01*
X238564Y187817D01*
X239415Y188170D01*
X240146Y188731D01*
X240707Y189462D01*
X241000Y190169D01*
X241500Y190069D01*
Y175158D01*
X241000Y175058D01*
X240707Y175765D01*
X240146Y176496D01*
X239415Y177057D01*
X238564Y177410D01*
X238415Y177429D01*
Y178850D01*
X238356Y179143D01*
X238191Y179391D01*
X237541Y180041D01*
X237293Y180207D01*
X237000Y180265D01*
X231534D01*
X231226Y180726D01*
X230663Y181101D01*
X230000Y181233D01*
X229337Y181101D01*
X228774Y180726D01*
X228399Y180163D01*
X228267Y179500D01*
X228399Y178837D01*
X228774Y178274D01*
X229337Y177899D01*
X230000Y177767D01*
X230663Y177899D01*
X231226Y178274D01*
X231534Y178735D01*
X236683D01*
X236885Y178533D01*
Y177429D01*
X236736Y177410D01*
X235885Y177057D01*
X235154Y176496D01*
X234593Y175765D01*
X234240Y174914D01*
X234120Y174000D01*
X234240Y173086D01*
X234593Y172235D01*
X235154Y171504D01*
X235885Y170943D01*
X236736Y170590D01*
X237650Y170470D01*
X238564Y170590D01*
X239415Y170943D01*
X240146Y171504D01*
X240707Y172235D01*
X241000Y172942D01*
X241500Y172842D01*
Y158294D01*
X241000Y158195D01*
X240707Y158901D01*
X240146Y159633D01*
X239415Y160194D01*
X238564Y160546D01*
X237650Y160667D01*
X236736Y160546D01*
X235885Y160194D01*
X235154Y159633D01*
X234593Y158901D01*
X234240Y158050D01*
X234120Y157136D01*
X234240Y156223D01*
X234593Y155371D01*
X235154Y154640D01*
X235885Y154079D01*
X236736Y153726D01*
X236885Y153707D01*
Y148967D01*
X232459Y144541D01*
X232294Y144293D01*
X232235Y144000D01*
Y135000D01*
X232294Y134707D01*
X232459Y134459D01*
X236885Y130033D01*
Y126429D01*
X236736Y126410D01*
X235885Y126057D01*
X235154Y125496D01*
X234593Y124765D01*
X234240Y123914D01*
X234120Y123000D01*
X234240Y122086D01*
X234593Y121235D01*
X234684Y121116D01*
X227109Y113541D01*
X226943Y113293D01*
X226885Y113000D01*
Y109430D01*
X226736Y109410D01*
X225885Y109057D01*
X225154Y108496D01*
X224593Y107765D01*
X224240Y106914D01*
X224120Y106000D01*
X224240Y105086D01*
X224593Y104235D01*
X225154Y103504D01*
X225885Y102943D01*
X226736Y102590D01*
X227650Y102470D01*
X228564Y102590D01*
X229415Y102943D01*
X230146Y103504D01*
X230707Y104235D01*
X231060Y105086D01*
X231180Y106000D01*
X231060Y106914D01*
X230707Y107765D01*
X230146Y108496D01*
X229415Y109057D01*
X228564Y109410D01*
X228415Y109430D01*
Y112683D01*
X235766Y120034D01*
X235885Y119943D01*
X236736Y119590D01*
X237650Y119470D01*
X238564Y119590D01*
X239415Y119943D01*
X240146Y120504D01*
X240707Y121235D01*
X241000Y121942D01*
X241500Y121842D01*
Y107158D01*
X241000Y107058D01*
X240707Y107765D01*
X240146Y108496D01*
X239415Y109057D01*
X238564Y109410D01*
X237650Y109530D01*
X236736Y109410D01*
X235885Y109057D01*
X235154Y108496D01*
X234593Y107765D01*
X234240Y106914D01*
X234120Y106000D01*
X234240Y105086D01*
X234593Y104235D01*
X235154Y103504D01*
X235885Y102943D01*
X236736Y102590D01*
X237650Y102470D01*
X238564Y102590D01*
X239415Y102943D01*
X240146Y103504D01*
X240707Y104235D01*
X241000Y104942D01*
X241500Y104842D01*
Y101000D01*
X241538Y100962D01*
X241347Y100500D01*
X141500D01*
Y299000D01*
X142000Y299500D01*
X241500D01*
Y294658D01*
D02*
G37*
%LPC*%
G36*
X234500Y165233D02*
X233837Y165101D01*
X233274Y164726D01*
X232899Y164163D01*
X232767Y163500D01*
X232875Y162956D01*
X229809Y159891D01*
X229415Y160194D01*
X228564Y160546D01*
X227650Y160667D01*
X226736Y160546D01*
X225885Y160194D01*
X225154Y159633D01*
X224593Y158901D01*
X224240Y158050D01*
X224120Y157136D01*
X224240Y156223D01*
X224593Y155371D01*
X225154Y154640D01*
X225885Y154079D01*
X226736Y153726D01*
X227650Y153606D01*
X228564Y153726D01*
X229415Y154079D01*
X230146Y154640D01*
X230707Y155371D01*
X231060Y156223D01*
X231180Y157136D01*
X231060Y158050D01*
X230788Y158706D01*
X233956Y161875D01*
X234500Y161767D01*
X235163Y161899D01*
X235726Y162274D01*
X236101Y162837D01*
X236233Y163500D01*
X236101Y164163D01*
X235726Y164726D01*
X235163Y165101D01*
X234500Y165233D01*
D02*
G37*
G36*
X177000Y165539D02*
X172000D01*
X171220Y165384D01*
X170558Y164942D01*
X170116Y164280D01*
X169961Y163500D01*
Y160500D01*
X170116Y159720D01*
X170558Y159058D01*
X171220Y158616D01*
X172000Y158461D01*
X177000D01*
X177780Y158616D01*
X178442Y159058D01*
X178884Y159720D01*
X179039Y160500D01*
Y163500D01*
X178884Y164280D01*
X178442Y164942D01*
X177780Y165384D01*
X177000Y165539D01*
D02*
G37*
G36*
X153500Y175548D02*
X152064Y175358D01*
X150726Y174804D01*
X149577Y173923D01*
X148696Y172774D01*
X148142Y171436D01*
X147952Y170000D01*
X148142Y168564D01*
X148696Y167226D01*
X149577Y166077D01*
X150726Y165196D01*
X152064Y164642D01*
X153500Y164453D01*
X154936Y164642D01*
X156274Y165196D01*
X157423Y166077D01*
X158304Y167226D01*
X158858Y168564D01*
X159047Y170000D01*
X158858Y171436D01*
X158304Y172774D01*
X157423Y173923D01*
X156274Y174804D01*
X154936Y175358D01*
X153500Y175548D01*
D02*
G37*
G36*
X227650Y194757D02*
X226736Y194637D01*
X225885Y194284D01*
X225154Y193723D01*
X224593Y192992D01*
X224240Y192141D01*
X224120Y191227D01*
X224240Y190314D01*
X224593Y189462D01*
X225154Y188731D01*
X225885Y188170D01*
X226736Y187817D01*
X227650Y187697D01*
X228564Y187817D01*
X229415Y188170D01*
X230146Y188731D01*
X230707Y189462D01*
X231060Y190314D01*
X231180Y191227D01*
X231060Y192141D01*
X230707Y192992D01*
X230146Y193723D01*
X229415Y194284D01*
X228564Y194637D01*
X227650Y194757D01*
D02*
G37*
G36*
Y177530D02*
X226736Y177410D01*
X225885Y177057D01*
X225154Y176496D01*
X224593Y175765D01*
X224240Y174914D01*
X224120Y174000D01*
X224240Y173086D01*
X224593Y172235D01*
X225154Y171504D01*
X225885Y170943D01*
X226736Y170590D01*
X227650Y170470D01*
X228564Y170590D01*
X229415Y170943D01*
X230146Y171504D01*
X230707Y172235D01*
X231060Y173086D01*
X231180Y174000D01*
X231060Y174914D01*
X230707Y175765D01*
X230146Y176496D01*
X229415Y177057D01*
X228564Y177410D01*
X227650Y177530D01*
D02*
G37*
G36*
X179000Y155500D02*
X170000D01*
Y148500D01*
X179000D01*
Y155500D01*
D02*
G37*
G36*
X163500Y126233D02*
X162837Y126101D01*
X162500Y125876D01*
X162163Y126101D01*
X161500Y126233D01*
X160837Y126101D01*
X160500Y125876D01*
X160163Y126101D01*
X159500Y126233D01*
X158837Y126101D01*
X158274Y125726D01*
X158151Y125541D01*
X144000D01*
X143617Y125383D01*
X143459Y125000D01*
Y111000D01*
X143617Y110617D01*
X144000Y110459D01*
X164368D01*
X164596Y110067D01*
X164613Y109997D01*
X164058Y109442D01*
X163616Y108780D01*
X163461Y108000D01*
X163616Y107220D01*
X164058Y106558D01*
X164720Y106116D01*
X165500Y105961D01*
X166280Y106116D01*
X166820Y106476D01*
X177142D01*
Y111413D01*
X166693D01*
Y110984D01*
X166445D01*
X165665Y110829D01*
X165453Y110687D01*
X165092Y110961D01*
X165041Y111014D01*
Y112959D01*
X179500D01*
X179883Y113117D01*
X180041Y113500D01*
Y122500D01*
X179883Y122883D01*
X179500Y123041D01*
X165041D01*
Y123747D01*
X165101Y123837D01*
X165233Y124500D01*
X165101Y125163D01*
X164726Y125726D01*
X164163Y126101D01*
X163500Y126233D01*
D02*
G37*
G36*
X169500Y133039D02*
X168720Y132884D01*
X168058Y132442D01*
X167616Y131780D01*
X167461Y131000D01*
X167616Y130220D01*
X168058Y129558D01*
X169878Y127738D01*
Y127055D01*
X170033Y126275D01*
X170475Y125613D01*
X171137Y125171D01*
X171917Y125016D01*
X172698Y125171D01*
X173359Y125613D01*
X173801Y126275D01*
X173957Y127055D01*
Y128583D01*
X173957Y128583D01*
X173801Y129363D01*
X173359Y130025D01*
X170942Y132442D01*
X170280Y132884D01*
X169500Y133039D01*
D02*
G37*
G36*
X233500Y130733D02*
X232837Y130601D01*
X232274Y130226D01*
X231899Y129663D01*
X231767Y129000D01*
X231899Y128337D01*
X231901Y128333D01*
X229534Y125966D01*
X229415Y126057D01*
X228564Y126410D01*
X227650Y126530D01*
X226736Y126410D01*
X225885Y126057D01*
X225154Y125496D01*
X224593Y124765D01*
X224240Y123914D01*
X224120Y123000D01*
X224240Y122086D01*
X224593Y121235D01*
X225154Y120504D01*
X225885Y119943D01*
X226736Y119590D01*
X227650Y119470D01*
X228564Y119590D01*
X229415Y119943D01*
X230146Y120504D01*
X230707Y121235D01*
X231060Y122086D01*
X231180Y123000D01*
X231060Y123914D01*
X230707Y124765D01*
X230616Y124884D01*
X233081Y127350D01*
X233500Y127267D01*
X234163Y127399D01*
X234726Y127774D01*
X235101Y128337D01*
X235233Y129000D01*
X235101Y129663D01*
X234726Y130226D01*
X234163Y130601D01*
X233500Y130733D01*
D02*
G37*
G36*
X196783Y171975D02*
X195625Y171823D01*
X194546Y171376D01*
X193619Y170665D01*
X192908Y169738D01*
X192461Y168658D01*
X192308Y167500D01*
X192461Y166342D01*
X192908Y165262D01*
X193619Y164336D01*
X194546Y163624D01*
X195625Y163177D01*
X196019Y163125D01*
Y146284D01*
X195625Y146232D01*
X194546Y145785D01*
X193619Y145074D01*
X192908Y144147D01*
X192461Y143068D01*
X192308Y141909D01*
X192461Y140751D01*
X192908Y139672D01*
X193619Y138745D01*
X194546Y138034D01*
X195625Y137587D01*
X196783Y137434D01*
X197942Y137587D01*
X199021Y138034D01*
X199948Y138745D01*
X200659Y139672D01*
X201106Y140751D01*
X201259Y141909D01*
X201106Y143068D01*
X200659Y144147D01*
X199948Y145074D01*
X199021Y145785D01*
X197942Y146232D01*
X197548Y146284D01*
Y163125D01*
X197942Y163177D01*
X199021Y163624D01*
X199948Y164336D01*
X200659Y165262D01*
X201106Y166342D01*
X201259Y167500D01*
X201106Y168658D01*
X200659Y169738D01*
X199948Y170665D01*
X199021Y171376D01*
X197942Y171823D01*
X196783Y171975D01*
D02*
G37*
G36*
X227650Y143530D02*
X226736Y143410D01*
X225885Y143057D01*
X225154Y142496D01*
X224593Y141765D01*
X224240Y140914D01*
X224120Y140000D01*
X224240Y139086D01*
X224593Y138235D01*
X225154Y137504D01*
X225885Y136943D01*
X226736Y136590D01*
X227650Y136470D01*
X228564Y136590D01*
X229415Y136943D01*
X230146Y137504D01*
X230707Y138235D01*
X231060Y139086D01*
X231180Y140000D01*
X231060Y140914D01*
X230707Y141765D01*
X230146Y142496D01*
X229415Y143057D01*
X228564Y143410D01*
X227650Y143530D01*
D02*
G37*
G36*
Y280030D02*
X226736Y279910D01*
X225885Y279557D01*
X225154Y278996D01*
X224593Y278265D01*
X224240Y277414D01*
X224155Y276765D01*
X220034D01*
X219726Y277226D01*
X219163Y277601D01*
X218500Y277733D01*
X217837Y277601D01*
X217274Y277226D01*
X216899Y276663D01*
X216767Y276000D01*
X216899Y275337D01*
X217274Y274774D01*
X217837Y274399D01*
X218500Y274267D01*
X219163Y274399D01*
X219726Y274774D01*
X220034Y275235D01*
X224385D01*
X224593Y274735D01*
X225154Y274004D01*
X225885Y273443D01*
X226736Y273090D01*
X227650Y272970D01*
X228564Y273090D01*
X229415Y273443D01*
X230146Y274004D01*
X230707Y274735D01*
X231060Y275586D01*
X231180Y276500D01*
X231060Y277414D01*
X230707Y278265D01*
X230146Y278996D01*
X229415Y279557D01*
X228564Y279910D01*
X227650Y280030D01*
D02*
G37*
G36*
Y297030D02*
X226736Y296910D01*
X225885Y296557D01*
X225154Y295996D01*
X224593Y295265D01*
X224240Y294414D01*
X224120Y293500D01*
X224240Y292586D01*
X224593Y291735D01*
X225154Y291004D01*
X225885Y290443D01*
X226736Y290090D01*
X226885Y290070D01*
Y284850D01*
X226943Y284557D01*
X227109Y284309D01*
X231735Y279683D01*
Y271317D01*
X228294Y267875D01*
X227750Y267983D01*
X227087Y267851D01*
X226524Y267476D01*
X226383Y267265D01*
X220500D01*
X220207Y267207D01*
X220076Y267119D01*
X219500Y267233D01*
X218837Y267101D01*
X218274Y266726D01*
X217899Y266163D01*
X217767Y265500D01*
X217899Y264837D01*
X218274Y264274D01*
X218837Y263899D01*
X219500Y263767D01*
X220163Y263899D01*
X220726Y264274D01*
X221101Y264837D01*
X221233Y265500D01*
X221426Y265735D01*
X226119D01*
X226149Y265587D01*
X226524Y265024D01*
X227087Y264649D01*
X227750Y264517D01*
X228413Y264649D01*
X228976Y265024D01*
X229351Y265587D01*
X229483Y266250D01*
X229375Y266794D01*
X233041Y270459D01*
X233207Y270707D01*
X233265Y271000D01*
Y280000D01*
X233265Y280000D01*
X233207Y280293D01*
X233041Y280541D01*
X233041Y280541D01*
X228415Y285167D01*
Y290070D01*
X228564Y290090D01*
X229415Y290443D01*
X230146Y291004D01*
X230707Y291735D01*
X231060Y292586D01*
X231180Y293500D01*
X231060Y294414D01*
X230707Y295265D01*
X230146Y295996D01*
X229415Y296557D01*
X228564Y296910D01*
X227650Y297030D01*
D02*
G37*
G36*
X154000Y295548D02*
X152564Y295358D01*
X151226Y294804D01*
X150077Y293923D01*
X149196Y292774D01*
X148642Y291436D01*
X148452Y290000D01*
X148642Y288564D01*
X149196Y287226D01*
X150077Y286077D01*
X151226Y285196D01*
X152564Y284642D01*
X154000Y284453D01*
X155436Y284642D01*
X156774Y285196D01*
X157923Y286077D01*
X158804Y287226D01*
X159358Y288564D01*
X159547Y290000D01*
X159358Y291436D01*
X158804Y292774D01*
X157923Y293923D01*
X156774Y294804D01*
X155436Y295358D01*
X154000Y295548D01*
D02*
G37*
G36*
X179596Y296974D02*
X179506D01*
X179415D01*
X179096Y296974D01*
X175463D01*
Y291644D01*
X179096D01*
X179415Y291644D01*
X179506D01*
X179596D01*
X179915Y291644D01*
X181005D01*
Y290586D01*
X178544Y288125D01*
X178000Y288233D01*
X177337Y288101D01*
X176774Y287726D01*
X176399Y287163D01*
X176267Y286500D01*
X176399Y285837D01*
X176774Y285274D01*
X177337Y284899D01*
X178000Y284767D01*
X178663Y284899D01*
X179226Y285274D01*
X179601Y285837D01*
X179733Y286500D01*
X179625Y287044D01*
X182310Y289729D01*
X182476Y289977D01*
X182534Y290270D01*
X182534Y290270D01*
Y291644D01*
X183943D01*
Y296974D01*
X179915D01*
X179596Y296974D01*
D02*
G37*
G36*
X209927Y296974D02*
X188258D01*
Y291644D01*
X189415D01*
X189562Y291144D01*
X178544Y280125D01*
X178000Y280233D01*
X177337Y280101D01*
X176774Y279726D01*
X176399Y279163D01*
X176267Y278500D01*
X176399Y277837D01*
X176774Y277274D01*
X177337Y276899D01*
X178000Y276767D01*
X178663Y276899D01*
X179226Y277274D01*
X179601Y277837D01*
X179733Y278500D01*
X179625Y279044D01*
X191041Y290459D01*
X191057Y290484D01*
X191528Y290289D01*
X191471Y290000D01*
X191587Y289415D01*
X191919Y288919D01*
X192415Y288587D01*
X193000Y288471D01*
X193585Y288587D01*
X194081Y288919D01*
X194413Y289415D01*
X194437Y289537D01*
X194762Y289964D01*
X195003Y290012D01*
X195003Y290012D01*
X195003D01*
X195249Y290061D01*
X195432Y290183D01*
X195663Y290337D01*
X195939Y290751D01*
X196036Y291238D01*
Y291644D01*
X198328D01*
Y280908D01*
X198386Y280615D01*
X198552Y280367D01*
X199875Y279044D01*
X199767Y278500D01*
X199899Y277837D01*
X200274Y277274D01*
X200735Y276966D01*
Y275817D01*
X194183Y269265D01*
X193534D01*
X193226Y269726D01*
X192663Y270101D01*
X192000Y270233D01*
X191337Y270101D01*
X190774Y269726D01*
X190399Y269163D01*
X190267Y268500D01*
X190399Y267837D01*
X190774Y267274D01*
X191337Y266899D01*
X192000Y266767D01*
X192663Y266899D01*
X193226Y267274D01*
X193534Y267735D01*
X194500D01*
X194793Y267793D01*
X195041Y267959D01*
X202041Y274959D01*
X202041Y274959D01*
X202206Y275207D01*
X202265Y275500D01*
Y276966D01*
X202726Y277274D01*
X203101Y277837D01*
X203233Y278500D01*
X203101Y279163D01*
X202726Y279726D01*
X202163Y280101D01*
X201500Y280233D01*
X200956Y280125D01*
X199857Y281224D01*
Y284858D01*
X200357Y285125D01*
X200415Y285087D01*
X201000Y284971D01*
X201585Y285087D01*
X202081Y285419D01*
X202293Y285735D01*
X202500D01*
X202793Y285793D01*
X203041Y285959D01*
X203964Y286882D01*
X203964Y286882D01*
X204130Y287131D01*
X204188Y287423D01*
Y291644D01*
X209927D01*
Y296974D01*
D02*
G37*
G36*
X186000Y257265D02*
X175500D01*
X175207Y257207D01*
X174959Y257041D01*
X171959Y254041D01*
X171793Y253793D01*
X171735Y253500D01*
Y242817D01*
X170044Y241125D01*
X169500Y241233D01*
X168837Y241101D01*
X168274Y240726D01*
X167899Y240163D01*
X167767Y239500D01*
X167899Y238837D01*
X168274Y238274D01*
X168837Y237899D01*
X169500Y237767D01*
X170163Y237899D01*
X170726Y238274D01*
X171101Y238837D01*
X171233Y239500D01*
X171125Y240044D01*
X173041Y241959D01*
X173206Y242207D01*
X173265Y242500D01*
Y253183D01*
X175817Y255735D01*
X185447D01*
X185825Y255294D01*
X185767Y255000D01*
X185899Y254337D01*
X186274Y253774D01*
X186837Y253399D01*
X187500Y253267D01*
X188163Y253399D01*
X188726Y253774D01*
X189101Y254337D01*
X189233Y255000D01*
X189101Y255663D01*
X188726Y256226D01*
X188163Y256601D01*
X187500Y256733D01*
X186956Y256625D01*
X186541Y257041D01*
X186293Y257207D01*
X186000Y257265D01*
D02*
G37*
G36*
X153500Y215547D02*
X152064Y215358D01*
X150726Y214804D01*
X149577Y213923D01*
X148696Y212774D01*
X148142Y211436D01*
X147952Y210000D01*
X148142Y208564D01*
X148696Y207226D01*
X149577Y206077D01*
X150726Y205196D01*
X152064Y204642D01*
X153500Y204452D01*
X154936Y204642D01*
X156274Y205196D01*
X157423Y206077D01*
X158304Y207226D01*
X158858Y208564D01*
X159047Y210000D01*
X158858Y211436D01*
X158304Y212774D01*
X157423Y213923D01*
X156274Y214804D01*
X154936Y215358D01*
X153500Y215547D01*
D02*
G37*
G36*
X194500Y224733D02*
X193837Y224601D01*
X193274Y224226D01*
X192899Y223663D01*
X192767Y223000D01*
X192899Y222337D01*
X193274Y221774D01*
X193480Y221637D01*
Y211606D01*
X193558Y211216D01*
X193779Y210885D01*
X198744Y205920D01*
Y201638D01*
X204468D01*
Y207362D01*
X200186D01*
X195520Y212029D01*
Y221637D01*
X195726Y221774D01*
X196101Y222337D01*
X196233Y223000D01*
X196101Y223663D01*
X195726Y224226D01*
X195163Y224601D01*
X194500Y224733D01*
D02*
G37*
G36*
X185000D02*
X184337Y224601D01*
X183774Y224226D01*
X183399Y223663D01*
X183267Y223000D01*
X183399Y222337D01*
X183774Y221774D01*
X184337Y221399D01*
X185000Y221267D01*
X185243Y221315D01*
X186480Y220078D01*
Y210029D01*
X183565Y207113D01*
X183141Y207289D01*
X182394Y207387D01*
X181647Y207289D01*
X180950Y207000D01*
X180352Y206541D01*
X179894Y205943D01*
X179605Y205247D01*
X179507Y204500D01*
X179605Y203753D01*
X179894Y203057D01*
X180352Y202459D01*
X180950Y202000D01*
X181647Y201712D01*
X182394Y201613D01*
X183141Y201712D01*
X183837Y202000D01*
X184435Y202459D01*
X184894Y203057D01*
X185182Y203753D01*
X185281Y204500D01*
X185182Y205247D01*
X185007Y205671D01*
X188221Y208885D01*
X188442Y209216D01*
X188520Y209606D01*
Y220500D01*
X188442Y220890D01*
X188221Y221221D01*
X186685Y222757D01*
X186733Y223000D01*
X186601Y223663D01*
X186226Y224226D01*
X185663Y224601D01*
X185000Y224733D01*
D02*
G37*
G36*
X227650Y262939D02*
X226736Y262819D01*
X225885Y262466D01*
X225154Y261905D01*
X224593Y261174D01*
X224240Y260323D01*
X224120Y259409D01*
X224240Y258495D01*
X224593Y257644D01*
X225154Y256913D01*
X225885Y256352D01*
X226365Y256153D01*
X226482Y255563D01*
X221683Y250765D01*
X220034D01*
X219726Y251226D01*
X219163Y251601D01*
X218500Y251733D01*
X217837Y251601D01*
X217274Y251226D01*
X216899Y250663D01*
X216767Y250000D01*
X216899Y249337D01*
X217274Y248774D01*
X217837Y248399D01*
X218500Y248267D01*
X219163Y248399D01*
X219726Y248774D01*
X220034Y249235D01*
X222000D01*
X222293Y249293D01*
X222541Y249459D01*
X228191Y255109D01*
X228357Y255357D01*
X228415Y255650D01*
X228564Y255999D01*
X229415Y256352D01*
X230146Y256913D01*
X230707Y257644D01*
X231060Y258495D01*
X231180Y259409D01*
X231060Y260323D01*
X230707Y261174D01*
X230146Y261905D01*
X229415Y262466D01*
X228564Y262819D01*
X227650Y262939D01*
D02*
G37*
G36*
X153500Y255547D02*
X152064Y255358D01*
X150726Y254804D01*
X149577Y253923D01*
X148696Y252774D01*
X148142Y251436D01*
X147952Y250000D01*
X148142Y248564D01*
X148696Y247226D01*
X149577Y246077D01*
X150726Y245196D01*
X152064Y244642D01*
X153500Y244453D01*
X154936Y244642D01*
X156274Y245196D01*
X157423Y246077D01*
X158304Y247226D01*
X158858Y248564D01*
X159047Y250000D01*
X158858Y251436D01*
X158304Y252774D01*
X157423Y253923D01*
X156274Y254804D01*
X154936Y255358D01*
X153500Y255547D01*
D02*
G37*
%LPD*%
D18*
X194762Y291762D02*
Y294309D01*
Y291762D02*
Y293000D01*
X193000Y290000D02*
X194762Y291762D01*
D19*
X237650Y123000D02*
Y130350D01*
X233000Y135000D02*
X237650Y130350D01*
X233000Y135000D02*
Y144000D01*
X237650Y148650D01*
Y157136D01*
X227650Y123000D02*
X233500Y128850D01*
Y129000D01*
X237650Y174000D02*
Y178850D01*
X237000Y179500D02*
X237650Y178850D01*
X230000Y179500D02*
X237000D01*
X228136Y157136D02*
X234500Y163500D01*
X227650Y157136D02*
X228136D01*
X227650Y255650D02*
Y259409D01*
X222000Y250000D02*
X227650Y255650D01*
X218500Y250000D02*
X222000D01*
X228000Y266500D02*
X232500Y271000D01*
X220500Y266500D02*
X228000D01*
X219500Y265500D02*
X220500Y266500D01*
X186000Y256500D02*
X187500Y255000D01*
X175500Y256500D02*
X186000D01*
X172500Y253500D02*
X175500Y256500D01*
X172500Y242500D02*
Y253500D01*
X169500Y239500D02*
X172500Y242500D01*
X196783Y141909D02*
Y167500D01*
X220500Y238500D02*
X233500D01*
Y229468D02*
Y238500D01*
Y229468D02*
X237650Y225318D01*
X233500Y238500D02*
Y263000D01*
X218500Y240500D02*
X220500Y238500D01*
X218500Y276000D02*
X227150D01*
X227650Y106000D02*
Y113000D01*
X237650Y123000D01*
X232000Y196877D02*
X237650Y191227D01*
X232000Y196877D02*
Y212000D01*
X227650Y216350D02*
X232000Y212000D01*
X227650Y216350D02*
Y225318D01*
X232500Y271000D02*
Y280000D01*
X227650Y284850D02*
X232500Y280000D01*
X227650Y284850D02*
Y293500D01*
X233500Y263000D02*
X237650Y267150D01*
Y276500D01*
X201000Y286500D02*
X202500D01*
X203423Y287423D01*
Y294309D01*
X181770Y290270D02*
Y294309D01*
X178000Y286500D02*
X181770Y290270D01*
X199092Y280908D02*
X201500Y278500D01*
X199092Y280908D02*
Y294309D01*
X201500Y275500D02*
Y278500D01*
X194500Y268500D02*
X201500Y275500D01*
X192000Y268500D02*
X194500D01*
X190431Y291069D02*
Y294309D01*
X178000Y278500D02*
X190500Y291000D01*
D20*
X185000Y223000D02*
X187500Y220500D01*
Y209606D02*
Y220500D01*
X182394Y204500D02*
X187500Y209606D01*
X194500Y211606D02*
Y223000D01*
Y211606D02*
X201606Y204500D01*
D21*
X171917Y127055D02*
Y128583D01*
X169500Y131000D02*
X171917Y128583D01*
X165500Y108000D02*
X166445Y108945D01*
X171917D01*
X149083Y118000D02*
X171917D01*
D22*
X237650Y123000D02*
D03*
X227650D02*
D03*
X237650Y225318D02*
D03*
X227650D02*
D03*
X237650Y242363D02*
D03*
X227650D02*
D03*
Y106000D02*
D03*
X237650D02*
D03*
X227650Y208272D02*
D03*
X237650D02*
D03*
Y174000D02*
D03*
X227650D02*
D03*
Y259409D02*
D03*
X237650D02*
D03*
Y140000D02*
D03*
X227650D02*
D03*
Y191227D02*
D03*
X237650D02*
D03*
X227650Y157136D02*
D03*
X237650D02*
D03*
X227650Y293500D02*
D03*
X237650D02*
D03*
Y276500D02*
D03*
X227650D02*
D03*
D23*
X201606Y204500D02*
D03*
D24*
X182394D02*
D03*
D25*
X153500Y210000D02*
D03*
Y190000D02*
D03*
Y170000D02*
D03*
Y230000D02*
D03*
Y250000D02*
D03*
Y270000D02*
D03*
X154000Y290000D02*
D03*
D26*
X153500Y150000D02*
D03*
D27*
X214500Y167500D02*
D03*
X196783D02*
D03*
X214500Y141909D02*
D03*
X196783D02*
D03*
D28*
X174500Y152000D02*
D03*
D29*
Y162000D02*
D03*
Y172000D02*
D03*
D30*
X233500Y129000D02*
D03*
X146500Y129500D02*
D03*
X219000Y105500D02*
D03*
X207000Y148500D02*
D03*
X213500Y154500D02*
D03*
X175500Y195000D02*
D03*
X208500Y189000D02*
D03*
X212000Y296000D02*
D03*
X233000Y267500D02*
D03*
X195500Y273500D02*
D03*
X179000Y260500D02*
D03*
X169500Y259000D02*
D03*
X202500Y257000D02*
D03*
X209000Y248500D02*
D03*
X178000Y250000D02*
D03*
X202500Y243500D02*
D03*
X189500Y243000D02*
D03*
X170500Y235500D02*
D03*
X176500Y240000D02*
D03*
X175500Y232500D02*
D03*
X208000Y277000D02*
D03*
Y283000D02*
D03*
X193500Y249500D02*
D03*
X216500Y180500D02*
D03*
X215000Y129000D02*
D03*
X159000Y108000D02*
D03*
X180500Y105000D02*
D03*
X185500Y159500D02*
D03*
Y176000D02*
D03*
X209500Y214500D02*
D03*
X201500D02*
D03*
X192000D02*
D03*
X185000D02*
D03*
X173000D02*
D03*
X230000Y179500D02*
D03*
X234500Y163500D02*
D03*
X218500Y250000D02*
D03*
X227750Y266250D02*
D03*
X163500Y124500D02*
D03*
X161500D02*
D03*
X159500D02*
D03*
X187500Y255000D02*
D03*
X169500Y239500D02*
D03*
X218500Y240500D02*
D03*
X219500Y265500D02*
D03*
X218500Y276000D02*
D03*
X178000Y286500D02*
D03*
X192000Y268500D02*
D03*
X201500Y278500D02*
D03*
X178000D02*
D03*
X185000Y223000D02*
D03*
X194500D02*
D03*
X165500Y108000D02*
D03*
X169500Y131000D02*
D03*
D31*
X201000Y286500D02*
D03*
X193000Y290000D02*
D03*
D32*
X149083Y118000D02*
D03*
D33*
X171917Y108945D02*
D03*
Y118000D02*
D03*
Y127055D02*
D03*
D34*
X180844Y251691D02*
D03*
X204348D02*
D03*
D35*
X218128Y254348D02*
D03*
Y270096D02*
D03*
D36*
X172872Y292931D02*
D03*
D37*
X217439Y293817D02*
D03*
D38*
X207754Y294309D02*
D03*
X181770D02*
D03*
X186100D02*
D03*
X190431D02*
D03*
X194762D02*
D03*
X199092D02*
D03*
X203423D02*
D03*
D39*
X177439D02*
D03*
D40*
X172000Y118000D02*
D03*
D41*
X154250D02*
D03*
M02*
