G04 Layer_Physical_Order=1*
G04 Layer_Color=25308*
%FSLAX25Y25*%
%MOIN*%
G70*
G01*
G75*
%ADD10R,0.03740X0.05315*%
%ADD11R,0.05512X0.03150*%
%ADD12R,0.03150X0.05512*%
%ADD13R,0.09350X0.07480*%
%ADD14R,0.05807X0.08268*%
%ADD15R,0.01772X0.05433*%
%ADD16O,0.01772X0.07087*%
%ADD17R,0.05315X0.03740*%
%ADD18C,0.01500*%
%ADD19C,0.00500*%
%ADD20C,0.01000*%
%ADD21C,0.03000*%
%ADD22C,0.06000*%
%ADD23R,0.04724X0.04724*%
%ADD24C,0.04724*%
%ADD25C,0.10000*%
%ADD26R,0.10000X0.10000*%
%ADD27C,0.07874*%
%ADD28R,0.08000X0.06000*%
G04:AMPARAMS|DCode=29|XSize=60mil|YSize=80mil|CornerRadius=15mil|HoleSize=0mil|Usage=FLASHONLY|Rotation=90.000|XOffset=0mil|YOffset=0mil|HoleType=Round|Shape=RoundedRectangle|*
%AMROUNDEDRECTD29*
21,1,0.06000,0.05000,0,0,90.0*
21,1,0.03000,0.08000,0,0,90.0*
1,1,0.03000,0.02500,0.01500*
1,1,0.03000,0.02500,-0.01500*
1,1,0.03000,-0.02500,-0.01500*
1,1,0.03000,-0.02500,0.01500*
%
%ADD29ROUNDEDRECTD29*%
%ADD30C,0.02400*%
%ADD31C,0.02000*%
G36*
X241500Y294658D02*
X241000Y294558D01*
X240707Y295265D01*
X240146Y295996D01*
X239415Y296557D01*
X238564Y296910D01*
X237650Y297030D01*
X236736Y296910D01*
X235885Y296557D01*
X235154Y295996D01*
X234593Y295265D01*
X234240Y294414D01*
X234120Y293500D01*
X234240Y292586D01*
X234593Y291735D01*
X235154Y291004D01*
X235885Y290443D01*
X236736Y290090D01*
X236885Y290070D01*
Y279929D01*
X236736Y279910D01*
X235885Y279557D01*
X235154Y278996D01*
X234593Y278265D01*
X234240Y277414D01*
X234120Y276500D01*
X234240Y275586D01*
X234593Y274735D01*
X235154Y274004D01*
X235885Y273443D01*
X236736Y273090D01*
X237650Y272970D01*
X238564Y273090D01*
X239415Y273443D01*
X240146Y274004D01*
X240707Y274735D01*
X241000Y275442D01*
X241500Y275342D01*
Y260567D01*
X241000Y260467D01*
X240707Y261174D01*
X240146Y261905D01*
X239415Y262466D01*
X238564Y262819D01*
X237650Y262939D01*
X236736Y262819D01*
X235885Y262466D01*
X235766Y262375D01*
X228415Y269726D01*
Y273071D01*
X228564Y273090D01*
X229415Y273443D01*
X230146Y274004D01*
X230707Y274735D01*
X231060Y275586D01*
X231180Y276500D01*
X231060Y277414D01*
X230707Y278265D01*
X230146Y278996D01*
X229415Y279557D01*
X228564Y279910D01*
X227650Y280030D01*
X226736Y279910D01*
X225885Y279557D01*
X225154Y278996D01*
X224593Y278265D01*
X224465Y277957D01*
X223901Y277901D01*
X206401Y295401D01*
X205988Y295677D01*
X205500Y295775D01*
X196213D01*
Y297756D01*
X192063D01*
Y291244D01*
X192063Y291244D01*
X191960Y291109D01*
X191919Y291081D01*
X191587Y290585D01*
X191471Y290000D01*
X191190Y289657D01*
X190579D01*
Y287774D01*
X188921D01*
Y289657D01*
X184181D01*
Y283343D01*
X188921D01*
Y285226D01*
X190579D01*
Y283343D01*
X191674D01*
Y281658D01*
X190579D01*
Y280774D01*
X188921D01*
Y281658D01*
X184181D01*
Y275342D01*
X188921D01*
Y278225D01*
X190579D01*
Y275342D01*
X195319D01*
Y281658D01*
X194223D01*
Y283343D01*
X195319D01*
Y289657D01*
X195167D01*
X194960Y290158D01*
X195039Y290237D01*
X195315Y290650D01*
X195412Y291138D01*
Y291244D01*
X196213D01*
Y293226D01*
X204972D01*
X221726Y276472D01*
Y236028D01*
X218197Y232500D01*
X218000Y232539D01*
X217220Y232384D01*
X216558Y231942D01*
X216116Y231280D01*
X215961Y230500D01*
Y226576D01*
X215499Y226385D01*
X214804Y227080D01*
X214143Y227522D01*
X213362Y227677D01*
X212756D01*
Y227713D01*
X210520D01*
Y228000D01*
X210442Y228390D01*
X210221Y228721D01*
X208721Y230221D01*
X208390Y230442D01*
X208000Y230520D01*
X205422D01*
X204276Y231666D01*
X204472Y232124D01*
X204503Y232146D01*
X205016Y232044D01*
X205557Y232151D01*
X206015Y232458D01*
X206321Y232916D01*
X206429Y233457D01*
Y238772D01*
X206321Y239312D01*
X206015Y239771D01*
X205780Y239927D01*
Y241199D01*
X208317Y243735D01*
X210079D01*
Y241342D01*
X214819D01*
Y247657D01*
X210079D01*
Y245265D01*
X208000D01*
X208000Y245265D01*
X207707Y245206D01*
X207459Y245041D01*
X204475Y242056D01*
X204309Y241808D01*
X204251Y241516D01*
Y239927D01*
X204017Y239771D01*
X203986Y239725D01*
X203486D01*
X203456Y239771D01*
X202997Y240077D01*
X202457Y240185D01*
X201916Y240077D01*
X201458Y239771D01*
X201427Y239725D01*
X200927D01*
X200897Y239771D01*
X200438Y240077D01*
X199898Y240185D01*
X199357Y240077D01*
X198898Y239771D01*
X198592Y239312D01*
X198485Y238772D01*
Y233457D01*
X198592Y232916D01*
X198878Y232488D01*
Y231102D01*
X198956Y230712D01*
X199177Y230381D01*
X200355Y229203D01*
Y227713D01*
X198119D01*
Y223563D01*
X204631D01*
Y227713D01*
X202395D01*
Y229625D01*
X202317Y230015D01*
X202279Y230072D01*
X202667Y230391D01*
X204279Y228779D01*
X204610Y228558D01*
X205000Y228480D01*
X207536D01*
X207784Y228175D01*
X207582Y227713D01*
X206244D01*
Y223563D01*
X212553D01*
X215961Y220155D01*
Y190845D01*
X212155Y187039D01*
X205421D01*
Y188157D01*
X200681D01*
Y181843D01*
X203325D01*
X203961Y181207D01*
Y161345D01*
X198155Y155539D01*
X192500D01*
X191720Y155384D01*
X191455Y155207D01*
X191058Y154942D01*
X191058Y154942D01*
X185558Y149442D01*
X185116Y148780D01*
X184961Y148000D01*
Y143845D01*
X182655Y141539D01*
X181921D01*
Y142657D01*
X177181D01*
Y136343D01*
X177512D01*
Y131896D01*
X174293Y128677D01*
X172256D01*
Y128713D01*
X165744D01*
Y128677D01*
X164756D01*
Y128713D01*
X158244D01*
Y125680D01*
X157899Y125163D01*
X157767Y124500D01*
X157899Y123837D01*
X158274Y123274D01*
X158837Y122899D01*
X159500Y122767D01*
X160163Y122899D01*
X160500Y123124D01*
X160837Y122899D01*
X161500Y122767D01*
X162163Y122899D01*
X162500Y123124D01*
X162837Y122899D01*
X163500Y122767D01*
X164163Y122899D01*
X164726Y123274D01*
X165101Y123837D01*
X165233Y124500D01*
X165258Y124530D01*
X165744Y124563D01*
X165744Y124563D01*
X165744Y124563D01*
X172256D01*
Y124599D01*
X175138D01*
X175918Y124754D01*
X176580Y125196D01*
X180993Y129609D01*
X181435Y130271D01*
X181590Y131051D01*
Y136343D01*
X181921D01*
Y137461D01*
X183500D01*
X184280Y137616D01*
X184942Y138058D01*
X188442Y141558D01*
X188884Y142220D01*
X189039Y143000D01*
Y147155D01*
X193345Y151461D01*
X199000D01*
X199780Y151616D01*
X200442Y152058D01*
X207442Y159058D01*
X207442Y159058D01*
X207707Y159455D01*
X207884Y159720D01*
X208039Y160500D01*
Y182051D01*
X207958Y182461D01*
X208353Y182961D01*
X213000D01*
X213780Y183116D01*
X214442Y183558D01*
X219442Y188558D01*
X219884Y189220D01*
X220039Y190000D01*
Y221000D01*
Y230500D01*
X220000Y230697D01*
X223901Y234599D01*
X224178Y235012D01*
X224274Y235500D01*
Y240191D01*
X224775Y240361D01*
X225154Y239867D01*
X225885Y239306D01*
X226736Y238953D01*
X226885Y238933D01*
Y235467D01*
X221959Y230541D01*
X221794Y230293D01*
X221735Y230000D01*
Y213422D01*
X221794Y213129D01*
X221959Y212881D01*
X224684Y210156D01*
X224593Y210037D01*
X224240Y209186D01*
X224120Y208272D01*
X224240Y207358D01*
X224593Y206507D01*
X225154Y205776D01*
X225885Y205215D01*
X226736Y204862D01*
X226885Y204842D01*
Y194657D01*
X226736Y194637D01*
X225885Y194284D01*
X225154Y193723D01*
X224593Y192992D01*
X224240Y192141D01*
X224120Y191227D01*
X224240Y190314D01*
X224593Y189462D01*
X225154Y188731D01*
X225885Y188170D01*
X226736Y187817D01*
X226885Y187798D01*
Y177429D01*
X226736Y177410D01*
X225885Y177057D01*
X225154Y176496D01*
X224593Y175765D01*
X224240Y174914D01*
X224120Y174000D01*
X224240Y173086D01*
X224593Y172235D01*
X224684Y172116D01*
X221959Y169391D01*
X221794Y169143D01*
X221735Y168850D01*
Y145150D01*
X221794Y144857D01*
X221959Y144609D01*
X224684Y141884D01*
X224593Y141765D01*
X224240Y140914D01*
X224120Y140000D01*
X224240Y139086D01*
X224593Y138235D01*
X225154Y137504D01*
X225885Y136943D01*
X226736Y136590D01*
X227650Y136470D01*
X228564Y136590D01*
X229415Y136943D01*
X230146Y137504D01*
X230235Y137620D01*
X230735Y137450D01*
Y125550D01*
X230235Y125380D01*
X230146Y125496D01*
X229415Y126057D01*
X228564Y126410D01*
X227650Y126530D01*
X226736Y126410D01*
X225885Y126057D01*
X225154Y125496D01*
X224593Y124765D01*
X224240Y123914D01*
X224120Y123000D01*
X224240Y122086D01*
X224593Y121235D01*
X225154Y120504D01*
X225885Y119943D01*
X226736Y119590D01*
X227650Y119470D01*
X228564Y119590D01*
X229415Y119943D01*
X230146Y120504D01*
X230235Y120620D01*
X230735Y120450D01*
Y112150D01*
X230793Y111857D01*
X230959Y111609D01*
X234684Y107884D01*
X234593Y107765D01*
X234240Y106914D01*
X234120Y106000D01*
X234240Y105086D01*
X234593Y104235D01*
X235154Y103504D01*
X235885Y102943D01*
X236736Y102590D01*
X237650Y102470D01*
X238564Y102590D01*
X239415Y102943D01*
X240146Y103504D01*
X240707Y104235D01*
X241000Y104942D01*
X241500Y104842D01*
Y101000D01*
X241538Y100962D01*
X241347Y100500D01*
X141500D01*
Y299000D01*
X142000Y299500D01*
X241500D01*
Y294658D01*
D02*
G37*
%LPC*%
G36*
X196783Y146385D02*
X195625Y146232D01*
X194546Y145785D01*
X193619Y145074D01*
X192908Y144147D01*
X192461Y143068D01*
X192308Y141909D01*
X192461Y140751D01*
X192908Y139672D01*
X193619Y138745D01*
X194546Y138034D01*
X195625Y137587D01*
X196783Y137434D01*
X197942Y137587D01*
X199021Y138034D01*
X199948Y138745D01*
X200659Y139672D01*
X201106Y140751D01*
X201259Y141909D01*
X201106Y143068D01*
X200659Y144147D01*
X199948Y145074D01*
X199021Y145785D01*
X197942Y146232D01*
X196783Y146385D01*
D02*
G37*
G36*
X174819Y184658D02*
X170079D01*
Y180211D01*
X166459Y176592D01*
X166294Y176344D01*
X166235Y176051D01*
Y164000D01*
X166294Y163707D01*
X166459Y163459D01*
X168459Y161459D01*
X168707Y161293D01*
X169000Y161235D01*
X169000Y161235D01*
X169961D01*
Y160500D01*
X170116Y159720D01*
X170558Y159058D01*
X171220Y158616D01*
X172000Y158461D01*
X177000D01*
X177780Y158616D01*
X178442Y159058D01*
X178884Y159720D01*
X179039Y160500D01*
Y163500D01*
X178884Y164280D01*
X178442Y164942D01*
X177780Y165384D01*
X177000Y165539D01*
X172000D01*
X171220Y165384D01*
X170558Y164942D01*
X170116Y164280D01*
X169961Y163500D01*
Y162765D01*
X169317D01*
X167765Y164317D01*
Y175734D01*
X170373Y178342D01*
X174819D01*
Y184658D01*
D02*
G37*
G36*
X182394Y207387D02*
X181647Y207289D01*
X180950Y207000D01*
X180352Y206541D01*
X179894Y205943D01*
X179605Y205247D01*
X179507Y204500D01*
X179605Y203753D01*
X179894Y203057D01*
X180352Y202459D01*
X180950Y202000D01*
X181647Y201712D01*
X182394Y201613D01*
X183141Y201712D01*
X183837Y202000D01*
X184435Y202459D01*
X184894Y203057D01*
X185182Y203753D01*
X185281Y204500D01*
X185182Y205247D01*
X184894Y205943D01*
X184435Y206541D01*
X183837Y207000D01*
X183141Y207289D01*
X182394Y207387D01*
D02*
G37*
G36*
X179000Y155500D02*
X170000D01*
Y148500D01*
X173225D01*
Y145028D01*
X172548Y144350D01*
X172271Y143937D01*
X172174Y143449D01*
Y142657D01*
X171079D01*
Y136343D01*
X175819D01*
Y142657D01*
X175167D01*
X174960Y143157D01*
X175401Y143599D01*
X175678Y144012D01*
X175775Y144500D01*
Y148500D01*
X179000D01*
Y155500D01*
D02*
G37*
G36*
X227650Y109530D02*
X226736Y109410D01*
X225885Y109057D01*
X225154Y108496D01*
X224593Y107765D01*
X224240Y106914D01*
X224120Y106000D01*
X224240Y105086D01*
X224593Y104235D01*
X225154Y103504D01*
X225885Y102943D01*
X226736Y102590D01*
X227650Y102470D01*
X228564Y102590D01*
X229415Y102943D01*
X230146Y103504D01*
X230707Y104235D01*
X231060Y105086D01*
X231180Y106000D01*
X231060Y106914D01*
X230707Y107765D01*
X230146Y108496D01*
X229415Y109057D01*
X228564Y109410D01*
X227650Y109530D01*
D02*
G37*
G36*
X199437Y132256D02*
X195287D01*
Y131039D01*
X188000D01*
X187220Y130884D01*
X186558Y130442D01*
X179655Y123539D01*
X167000D01*
X166220Y123384D01*
X165558Y122942D01*
X162696Y120080D01*
X162254Y119418D01*
X162099Y118638D01*
Y118256D01*
X162063D01*
Y111756D01*
X162063Y111744D01*
X162063D01*
Y111744D01*
X162063Y111256D01*
X162063Y111251D01*
X162063Y111244D01*
D01*
Y111244D01*
X162063D01*
Y104744D01*
X166213D01*
Y106103D01*
X166280Y106116D01*
X166942Y106558D01*
X167384Y107220D01*
X167539Y108000D01*
X167384Y108780D01*
X166942Y109442D01*
X166280Y109884D01*
X166213Y109897D01*
Y111244D01*
X166213Y111256D01*
X166213D01*
Y111256D01*
X166213Y111744D01*
D01*
X166213Y111749D01*
X166213Y111756D01*
D01*
Y111756D01*
X166213D01*
Y117829D01*
X167845Y119461D01*
X180500D01*
X181280Y119616D01*
X181942Y120058D01*
X188845Y126961D01*
X195287D01*
Y125744D01*
X196343D01*
Y124785D01*
X194661Y123103D01*
X194440Y122772D01*
X194362Y122382D01*
Y119916D01*
X193996D01*
Y113484D01*
X204445D01*
Y115756D01*
X204721Y115892D01*
X204945Y115947D01*
X205228Y115758D01*
X205618Y115680D01*
X206008Y115758D01*
X206339Y115979D01*
X206560Y116310D01*
X206638Y116700D01*
Y122882D01*
X206560Y123272D01*
X206339Y123603D01*
X205382Y124560D01*
Y129000D01*
X205304Y129390D01*
X205083Y129721D01*
X204752Y129942D01*
X204362Y130020D01*
X203972Y129942D01*
X203641Y129721D01*
X203420Y129390D01*
X203343Y129000D01*
Y124138D01*
X203420Y123748D01*
X203641Y123417D01*
X204598Y122460D01*
Y120353D01*
X204445Y119916D01*
X204099Y119916D01*
X196402D01*
Y121960D01*
X198083Y123641D01*
X198304Y123972D01*
X198382Y124362D01*
Y125744D01*
X199437D01*
Y132256D01*
D02*
G37*
G36*
X164756Y135713D02*
X158244D01*
Y135677D01*
X154087D01*
X154087Y135677D01*
X153306Y135522D01*
X153156Y135421D01*
X150343D01*
Y130681D01*
X156658D01*
Y131599D01*
X158244D01*
Y131563D01*
X164756D01*
Y135713D01*
D02*
G37*
G36*
X218500Y277733D02*
X217837Y277601D01*
X217274Y277226D01*
X216899Y276663D01*
X216767Y276000D01*
X216899Y275337D01*
X217274Y274774D01*
X217743Y274461D01*
X217787Y274243D01*
Y273657D01*
X216181D01*
Y267342D01*
X218298D01*
X218449Y266843D01*
X218274Y266726D01*
X217899Y266163D01*
X217767Y265500D01*
X217899Y264837D01*
X217947Y264765D01*
X217711Y264324D01*
X216181D01*
Y258009D01*
X220921D01*
Y264324D01*
X220921Y264324D01*
X220921D01*
X221063Y264779D01*
X221101Y264837D01*
X221233Y265500D01*
X221101Y266163D01*
X220726Y266726D01*
X220551Y266843D01*
X220702Y267342D01*
X220921D01*
Y273657D01*
X219316D01*
Y274449D01*
X219307Y274495D01*
X219726Y274774D01*
X220101Y275337D01*
X220233Y276000D01*
X220101Y276663D01*
X219726Y277226D01*
X219163Y277601D01*
X218500Y277733D01*
D02*
G37*
G36*
X154000Y295548D02*
X152564Y295358D01*
X151226Y294804D01*
X150077Y293923D01*
X149196Y292774D01*
X148642Y291436D01*
X148452Y290000D01*
X148642Y288564D01*
X149196Y287226D01*
X150077Y286077D01*
X151226Y285196D01*
X152564Y284642D01*
X154000Y284453D01*
X155436Y284642D01*
X156774Y285196D01*
X157107Y285451D01*
X174279Y268279D01*
X174610Y268058D01*
X175000Y267980D01*
X182578D01*
X183430Y267128D01*
X183379Y266776D01*
X182965Y266557D01*
X182955Y266561D01*
X182525Y266849D01*
X181984Y266956D01*
X181444Y266849D01*
X180985Y266542D01*
X180679Y266084D01*
X180571Y265543D01*
Y260228D01*
X180679Y259688D01*
X180965Y259260D01*
Y258407D01*
X173578Y251020D01*
X158913D01*
X158858Y251436D01*
X158304Y252774D01*
X157423Y253923D01*
X156274Y254804D01*
X154936Y255358D01*
X153500Y255547D01*
X152064Y255358D01*
X150726Y254804D01*
X149577Y253923D01*
X148696Y252774D01*
X148142Y251436D01*
X147952Y250000D01*
X148142Y248564D01*
X148696Y247226D01*
X149577Y246077D01*
X150726Y245196D01*
X152064Y244642D01*
X153500Y244453D01*
X154936Y244642D01*
X156274Y245196D01*
X157423Y246077D01*
X158304Y247226D01*
X158858Y248564D01*
X158913Y248980D01*
X165254D01*
X165303Y248480D01*
X165110Y248442D01*
X164779Y248221D01*
X157078Y240520D01*
X151000D01*
X150610Y240442D01*
X150279Y240221D01*
X145779Y235721D01*
X145558Y235390D01*
X145480Y235000D01*
Y177000D01*
X145558Y176610D01*
X145779Y176279D01*
X148951Y173107D01*
X148696Y172774D01*
X148142Y171436D01*
X147952Y170000D01*
X148142Y168564D01*
X148696Y167226D01*
X149577Y166077D01*
X150726Y165196D01*
X152064Y164642D01*
X153500Y164453D01*
X154936Y164642D01*
X156274Y165196D01*
X157423Y166077D01*
X158304Y167226D01*
X158858Y168564D01*
X159047Y170000D01*
X158858Y171436D01*
X158304Y172774D01*
X157423Y173923D01*
X156274Y174804D01*
X154936Y175358D01*
X153500Y175548D01*
X152064Y175358D01*
X150726Y174804D01*
X150393Y174549D01*
X147520Y177422D01*
Y209458D01*
X148020Y209491D01*
X148142Y208564D01*
X148696Y207226D01*
X149577Y206077D01*
X150726Y205196D01*
X152064Y204642D01*
X153500Y204452D01*
X154936Y204642D01*
X156274Y205196D01*
X157423Y206077D01*
X158304Y207226D01*
X158858Y208564D01*
X159047Y210000D01*
X158858Y211436D01*
X158304Y212774D01*
X158049Y213107D01*
X163721Y218779D01*
X163942Y219110D01*
X164020Y219500D01*
Y238578D01*
X168422Y242980D01*
X182078D01*
X183524Y241534D01*
Y239944D01*
X183077Y239734D01*
X182955Y239790D01*
X182525Y240077D01*
X181984Y240185D01*
X181444Y240077D01*
X180985Y239771D01*
X180679Y239312D01*
X180571Y238772D01*
Y236879D01*
X174614D01*
X174614Y236879D01*
X174322Y236821D01*
X174074Y236655D01*
X174073Y236655D01*
X169765Y232346D01*
X169265Y232553D01*
Y237574D01*
X169500Y237767D01*
X170163Y237899D01*
X170726Y238274D01*
X171101Y238837D01*
X171233Y239500D01*
X171101Y240163D01*
X170726Y240726D01*
X170163Y241101D01*
X169500Y241233D01*
X168837Y241101D01*
X168274Y240726D01*
X167899Y240163D01*
X167767Y239500D01*
X167881Y238924D01*
X167794Y238793D01*
X167735Y238500D01*
Y195500D01*
X167794Y195207D01*
X167959Y194959D01*
X177761Y185158D01*
X177725Y184658D01*
X176181D01*
Y178342D01*
X180921D01*
Y184658D01*
X179316D01*
Y185449D01*
X179316Y185449D01*
X179258Y185741D01*
X179092Y185989D01*
X179092Y185990D01*
X176820Y188261D01*
X176953Y188611D01*
X177053Y188735D01*
X192132D01*
X194579Y186289D01*
Y181843D01*
X196019D01*
Y171875D01*
X195625Y171823D01*
X194546Y171376D01*
X193619Y170665D01*
X192908Y169738D01*
X192461Y168658D01*
X192308Y167500D01*
X192461Y166342D01*
X192908Y165262D01*
X193619Y164336D01*
X194546Y163624D01*
X195625Y163177D01*
X196783Y163025D01*
X197942Y163177D01*
X199021Y163624D01*
X199948Y164336D01*
X200659Y165262D01*
X201106Y166342D01*
X201259Y167500D01*
X201106Y168658D01*
X200659Y169738D01*
X199948Y170665D01*
X199021Y171376D01*
X197942Y171823D01*
X197548Y171875D01*
Y181843D01*
X199319D01*
Y188157D01*
X194873D01*
X192990Y190041D01*
X192742Y190207D01*
X192449Y190265D01*
X177317D01*
X170765Y196817D01*
Y231183D01*
X174931Y235349D01*
X180571D01*
Y233457D01*
X180679Y232916D01*
X180985Y232458D01*
X181444Y232151D01*
X181984Y232044D01*
X182525Y232151D01*
X182983Y232458D01*
X183014Y232503D01*
X183514D01*
X183544Y232458D01*
X184003Y232151D01*
X184543Y232044D01*
X185084Y232151D01*
X185542Y232458D01*
X185573Y232503D01*
X186073D01*
X186103Y232458D01*
X186562Y232151D01*
X186748Y232114D01*
X186996Y231555D01*
X186975Y231520D01*
X179000D01*
X178610Y231442D01*
X178279Y231221D01*
X176279Y229221D01*
X176058Y228890D01*
X175980Y228500D01*
Y227713D01*
X173744D01*
Y223563D01*
X180256D01*
Y227713D01*
X178345D01*
X178155Y228213D01*
X179422Y229480D01*
X184385D01*
X184576Y229018D01*
X184404Y228846D01*
X184183Y228515D01*
X184105Y228125D01*
Y227713D01*
X181869D01*
Y223563D01*
X182985D01*
X183302Y223177D01*
X183267Y223000D01*
X183399Y222337D01*
X183774Y221774D01*
X184337Y221399D01*
X185000Y221267D01*
X185663Y221399D01*
X186226Y221774D01*
X186601Y222337D01*
X186733Y223000D01*
X186698Y223177D01*
X187015Y223563D01*
X188381D01*
Y227713D01*
X188770Y227980D01*
X189216D01*
X189688Y227920D01*
X189972Y227597D01*
X189977Y227592D01*
X189987Y227580D01*
X189987Y227580D01*
X189994Y227572D01*
Y227514D01*
X189994Y227481D01*
X189994Y227328D01*
Y227325D01*
Y227325D01*
Y223563D01*
X192485D01*
X192802Y223177D01*
X192767Y223000D01*
X192899Y222337D01*
X193274Y221774D01*
X193837Y221399D01*
X194500Y221267D01*
X195163Y221399D01*
X195726Y221774D01*
X196101Y222337D01*
X196233Y223000D01*
X196196Y223186D01*
X196506Y223563D01*
X196506D01*
Y227713D01*
X194270D01*
Y228828D01*
X195501Y230059D01*
X195721Y230389D01*
X195799Y230780D01*
Y232488D01*
X196085Y232916D01*
X196193Y233457D01*
Y238772D01*
X196085Y239312D01*
X195779Y239771D01*
X195320Y240077D01*
X194780Y240185D01*
X194239Y240077D01*
X193780Y239771D01*
X193750Y239725D01*
X193250D01*
X193220Y239771D01*
X192761Y240077D01*
X192220Y240185D01*
X191680Y240077D01*
X191221Y239771D01*
X191191Y239725D01*
X190691D01*
X190661Y239771D01*
X190202Y240077D01*
X189661Y240185D01*
X189121Y240077D01*
X188690Y239790D01*
X188569Y239734D01*
X188503Y239765D01*
X188122Y240093D01*
Y244398D01*
X188044Y244788D01*
X187823Y245119D01*
X184721Y248221D01*
X184390Y248442D01*
X184000Y248520D01*
X174246D01*
X174197Y249020D01*
X174390Y249058D01*
X174721Y249279D01*
X182705Y257263D01*
X182926Y257594D01*
X183004Y257984D01*
Y259056D01*
X183451Y259266D01*
X183572Y259210D01*
X184003Y258923D01*
X184543Y258815D01*
X185084Y258923D01*
X185542Y259229D01*
X186025Y259178D01*
X186338Y258884D01*
Y256268D01*
X186274Y256226D01*
X185899Y255663D01*
X185767Y255000D01*
X185899Y254337D01*
X186274Y253774D01*
X186837Y253399D01*
X187500Y253267D01*
X188163Y253399D01*
X188726Y253774D01*
X189101Y254337D01*
X189233Y255000D01*
X189101Y255663D01*
X188726Y256226D01*
X188163Y256601D01*
X187867Y256660D01*
Y259073D01*
X188101Y259229D01*
X188132Y259275D01*
X188632D01*
X188662Y259229D01*
X189121Y258923D01*
X189661Y258815D01*
X190202Y258923D01*
X190661Y259229D01*
X190691Y259275D01*
X191191D01*
X191221Y259229D01*
X191680Y258923D01*
X192220Y258815D01*
X192761Y258923D01*
X193220Y259229D01*
X193250Y259275D01*
X193750D01*
X193780Y259229D01*
X194239Y258923D01*
X194780Y258815D01*
X195320Y258923D01*
X195779Y259229D01*
X195809Y259275D01*
X196309D01*
X196339Y259229D01*
X196798Y258923D01*
X197339Y258815D01*
X197879Y258923D01*
X198338Y259229D01*
X198368Y259275D01*
X198868D01*
X198898Y259229D01*
X199357Y258923D01*
X199898Y258815D01*
X200438Y258923D01*
X200897Y259229D01*
X200927Y259275D01*
X201427D01*
X201458Y259229D01*
X201916Y258923D01*
X202457Y258815D01*
X202997Y258923D01*
X203428Y259210D01*
X203549Y259266D01*
X203615Y259235D01*
X203996Y258907D01*
Y255484D01*
X204074Y255094D01*
X204295Y254763D01*
X207279Y251779D01*
X207610Y251558D01*
X208000Y251480D01*
X210079D01*
Y249676D01*
X214819D01*
Y255991D01*
X210079D01*
Y253520D01*
X208422D01*
X206035Y255907D01*
Y259260D01*
X206321Y259688D01*
X206429Y260228D01*
Y265543D01*
X206321Y266084D01*
X206015Y266542D01*
X205557Y266849D01*
X205016Y266956D01*
X204475Y266849D01*
X204045Y266561D01*
X203923Y266506D01*
X203857Y266537D01*
X203476Y266865D01*
Y267534D01*
X203922Y267980D01*
X207078D01*
X207480Y267578D01*
Y262000D01*
X207558Y261610D01*
X207779Y261279D01*
X208779Y260279D01*
X209110Y260058D01*
X209500Y259980D01*
X210079D01*
Y258009D01*
X214819D01*
Y264324D01*
X210079D01*
Y263108D01*
X209579Y262840D01*
X209520Y262880D01*
Y268000D01*
X209442Y268390D01*
X209221Y268721D01*
X208461Y269480D01*
X208669Y269980D01*
X210079D01*
Y267342D01*
X214819D01*
Y273657D01*
X210079D01*
Y272020D01*
X203000D01*
X202610Y271942D01*
X202279Y271721D01*
X199177Y268619D01*
X198956Y268288D01*
X198878Y267898D01*
Y266825D01*
X198381Y266627D01*
X198103Y266887D01*
Y269522D01*
X204541Y275959D01*
X204707Y276207D01*
X204765Y276500D01*
Y285500D01*
X204707Y285793D01*
X204541Y286041D01*
X204541Y286041D01*
X203541Y287041D01*
X203293Y287207D01*
X203000Y287265D01*
X202293D01*
X202081Y287581D01*
X201585Y287913D01*
X201421Y287946D01*
Y289657D01*
X196681D01*
Y283343D01*
X201421D01*
Y285054D01*
X201585Y285087D01*
X202081Y285419D01*
X202225Y285634D01*
X202751Y285668D01*
X203235Y285183D01*
Y279863D01*
X202735Y279711D01*
X202726Y279726D01*
X202163Y280101D01*
X201500Y280233D01*
X201421Y280298D01*
Y281658D01*
X196681D01*
Y275342D01*
X201054D01*
X201261Y274843D01*
X196798Y270379D01*
X196632Y270131D01*
X196574Y269839D01*
Y266699D01*
X196339Y266542D01*
X195857Y266594D01*
X195544Y266887D01*
Y270220D01*
X195486Y270513D01*
X195320Y270761D01*
X193041Y273041D01*
X192793Y273206D01*
X192500Y273265D01*
X183317D01*
X181701Y274881D01*
X181892Y275342D01*
X182819D01*
Y281658D01*
X178079D01*
Y280298D01*
X178000Y280233D01*
X177337Y280101D01*
X176774Y279726D01*
X176399Y279163D01*
X176267Y278500D01*
X176399Y277837D01*
X176774Y277274D01*
X177337Y276899D01*
X178000Y276767D01*
X178079Y276702D01*
Y275342D01*
X179684D01*
Y275051D01*
X179742Y274759D01*
X179908Y274511D01*
X181692Y272727D01*
X181501Y272265D01*
X180317D01*
X175765Y276817D01*
Y283183D01*
X177456Y284875D01*
X178000Y284767D01*
X178079Y284702D01*
Y283343D01*
X182819D01*
Y289657D01*
X178079D01*
Y288298D01*
X178000Y288233D01*
X177337Y288101D01*
X176774Y287726D01*
X176399Y287163D01*
X176267Y286500D01*
X176375Y285956D01*
X174459Y284041D01*
X174293Y283793D01*
X174235Y283500D01*
Y276500D01*
X174293Y276207D01*
X174459Y275959D01*
X179459Y270959D01*
X179707Y270794D01*
X180000Y270735D01*
X180000Y270735D01*
X186183D01*
X188897Y268022D01*
Y266699D01*
X188662Y266542D01*
X188632Y266497D01*
X188132D01*
X188101Y266542D01*
X187643Y266849D01*
X187102Y266956D01*
X186562Y266849D01*
X186131Y266561D01*
X186010Y266506D01*
X185944Y266537D01*
X185563Y266865D01*
Y267457D01*
X185485Y267847D01*
X185264Y268178D01*
X183721Y269721D01*
X183390Y269942D01*
X183000Y270020D01*
X175422D01*
X158549Y286893D01*
X158804Y287226D01*
X159358Y288564D01*
X159547Y290000D01*
X159358Y291436D01*
X158804Y292774D01*
X157923Y293923D01*
X156774Y294804D01*
X155436Y295358D01*
X154000Y295548D01*
D02*
G37*
G36*
X227650Y297030D02*
X226736Y296910D01*
X225885Y296557D01*
X225154Y295996D01*
X224593Y295265D01*
X224240Y294414D01*
X224120Y293500D01*
X224240Y292586D01*
X224593Y291735D01*
X225154Y291004D01*
X225885Y290443D01*
X226736Y290090D01*
X227650Y289970D01*
X228564Y290090D01*
X229415Y290443D01*
X230146Y291004D01*
X230707Y291735D01*
X231060Y292586D01*
X231180Y293500D01*
X231060Y294414D01*
X230707Y295265D01*
X230146Y295996D01*
X229415Y296557D01*
X228564Y296910D01*
X227650Y297030D01*
D02*
G37*
G36*
X220921Y255991D02*
X216181D01*
Y249676D01*
X216831D01*
X216899Y249337D01*
X217274Y248774D01*
X217837Y248399D01*
X218500Y248267D01*
X219163Y248399D01*
X219726Y248774D01*
X220101Y249337D01*
X220169Y249676D01*
X220921D01*
Y255991D01*
D02*
G37*
G36*
X204468Y207362D02*
X198744D01*
Y201638D01*
X204468D01*
Y207362D01*
D02*
G37*
G36*
X220921Y247657D02*
X216181D01*
Y241342D01*
X216463D01*
X216835Y240843D01*
X216767Y240500D01*
X216899Y239837D01*
X217274Y239274D01*
X217837Y238899D01*
X218500Y238767D01*
X219163Y238899D01*
X219726Y239274D01*
X220101Y239837D01*
X220233Y240500D01*
X220165Y240843D01*
X220537Y241342D01*
X220921D01*
Y247657D01*
D02*
G37*
%LPD*%
G36*
X186083Y243975D02*
Y240415D01*
X185823Y240265D01*
X185563Y240415D01*
Y241957D01*
X185485Y242347D01*
X185264Y242678D01*
X183221Y244721D01*
X182890Y244942D01*
X182500Y245020D01*
X168000D01*
X167610Y244942D01*
X167279Y244721D01*
X162279Y239721D01*
X162058Y239390D01*
X161980Y239000D01*
Y219922D01*
X156607Y214549D01*
X156274Y214804D01*
X154936Y215358D01*
X153500Y215547D01*
X152064Y215358D01*
X150726Y214804D01*
X149577Y213923D01*
X148696Y212774D01*
X148142Y211436D01*
X148020Y210509D01*
X147520Y210542D01*
Y234578D01*
X151422Y238480D01*
X157500D01*
X157890Y238558D01*
X158221Y238779D01*
X165922Y246480D01*
X183578D01*
X186083Y243975D01*
D02*
G37*
D10*
X172449Y181500D02*
D03*
X178551D02*
D03*
X203051Y185000D02*
D03*
X196949D02*
D03*
X179551Y139500D02*
D03*
X173449D02*
D03*
X218551Y244500D02*
D03*
X212449D02*
D03*
X218551Y252833D02*
D03*
X212449D02*
D03*
X218551Y261167D02*
D03*
X212449D02*
D03*
X218551Y270500D02*
D03*
X212449D02*
D03*
X192949Y278500D02*
D03*
X199051D02*
D03*
X192949Y286500D02*
D03*
X199051D02*
D03*
X186551Y278500D02*
D03*
X180449D02*
D03*
X186551Y286500D02*
D03*
X180449D02*
D03*
D11*
X161500Y133638D02*
D03*
Y126638D02*
D03*
X193250Y225638D02*
D03*
Y218638D02*
D03*
X185125Y225638D02*
D03*
Y218638D02*
D03*
X201375Y225638D02*
D03*
Y218638D02*
D03*
X177000Y225638D02*
D03*
Y218638D02*
D03*
X209500Y225638D02*
D03*
Y218638D02*
D03*
X169000Y133638D02*
D03*
Y126638D02*
D03*
D12*
X171138Y108000D02*
D03*
X164138D02*
D03*
X171138Y115000D02*
D03*
X164138D02*
D03*
X194138Y294500D02*
D03*
X187138D02*
D03*
X197362Y129000D02*
D03*
X204362D02*
D03*
D13*
X189043Y106236D02*
D03*
X211957D02*
D03*
D14*
X210244Y115311D02*
D03*
X190756D02*
D03*
D15*
X195382Y116700D02*
D03*
X197941D02*
D03*
X205618D02*
D03*
X200500D02*
D03*
X203059D02*
D03*
D16*
X181984Y236114D02*
D03*
X184543D02*
D03*
X187102D02*
D03*
X189661D02*
D03*
X192220D02*
D03*
X194780D02*
D03*
X197339D02*
D03*
X199898D02*
D03*
X202457D02*
D03*
X205016D02*
D03*
X181984Y262886D02*
D03*
X184543D02*
D03*
X187102D02*
D03*
X189661D02*
D03*
X192220D02*
D03*
X194780D02*
D03*
X197339D02*
D03*
X199898D02*
D03*
X202457D02*
D03*
X205016D02*
D03*
D17*
X153500Y133051D02*
D03*
Y126949D02*
D03*
D18*
X193000Y290000D02*
X194138Y291138D01*
X192949Y289949D02*
X193000Y290000D01*
X174500Y144500D02*
Y152000D01*
X173449Y143449D02*
X174500Y144500D01*
X173449Y139500D02*
Y143449D01*
X194138Y294500D02*
X205500D01*
X223000Y277000D01*
X194138Y291138D02*
Y294500D01*
X192949Y286500D02*
Y289949D01*
X186551Y279500D02*
X192949D01*
Y286500D01*
X186551D02*
X192949D01*
X223000Y235500D02*
Y277000D01*
X218000Y230500D02*
X223000Y235500D01*
D19*
X232500Y130000D02*
X233500Y129000D01*
X232500Y130000D02*
Y145150D01*
X230000Y179500D02*
X231500Y181000D01*
X237650Y157136D02*
Y174000D01*
X233500Y164500D02*
X234500Y163500D01*
X233500Y164500D02*
Y176500D01*
X234500Y177500D01*
Y187000D01*
X237650Y190150D01*
Y191227D01*
X232500Y145150D02*
X237650Y140000D01*
X233500Y178000D02*
Y200000D01*
X232500Y145150D02*
Y177000D01*
X233500Y178000D01*
X231500Y112150D02*
X237650Y106000D01*
X232500Y178500D02*
Y229500D01*
X231500Y112150D02*
Y177500D01*
X232500Y178500D01*
X231500Y181000D02*
Y231000D01*
X233500Y233000D01*
Y246500D01*
X237650Y250650D01*
Y259409D01*
X232500Y229500D02*
X237650Y234650D01*
X233500Y200000D02*
X237650Y204150D01*
X227650Y242363D02*
Y259409D01*
X232000Y234000D02*
Y262000D01*
X227750Y266250D02*
X232000Y262000D01*
X227650Y229650D02*
X232000Y234000D01*
X227650Y225318D02*
Y229650D01*
X187102Y255398D02*
Y262886D01*
X168500Y238500D02*
X169500Y239500D01*
X168500Y195500D02*
Y238500D01*
Y195500D02*
X178551Y185449D01*
Y181500D02*
Y185449D01*
X169000Y162000D02*
X174500D01*
X167000Y164000D02*
X169000Y162000D01*
X167000Y164000D02*
Y176051D01*
X172449Y181500D01*
X208000Y244500D02*
X212449D01*
X205016Y241516D02*
X208000Y244500D01*
X205016Y236114D02*
Y241516D01*
X218500Y244449D02*
X218551Y244500D01*
X218500Y240500D02*
Y244449D01*
X219500Y262116D02*
Y265500D01*
X218551Y261167D02*
X219500Y262116D01*
X218500Y274500D02*
Y276000D01*
Y274500D02*
X218551Y274449D01*
Y270500D02*
Y274449D01*
X237650Y204150D02*
Y208272D01*
X222500Y213422D02*
X227650Y208272D01*
X222500Y213422D02*
Y230000D01*
X227650Y235150D01*
Y242363D01*
Y269409D02*
X237650Y259409D01*
X227650Y269409D02*
Y276500D01*
X237650Y208272D02*
Y225318D01*
X227650Y191227D02*
Y208272D01*
Y174000D02*
Y191227D01*
X222500Y168850D02*
X227650Y174000D01*
X222500Y145150D02*
Y168850D01*
Y145150D02*
X227650Y140000D01*
X237650Y234650D02*
Y242363D01*
Y276500D02*
Y293500D01*
X175000Y283500D02*
X178000Y286500D01*
X175000Y276500D02*
Y283500D01*
X192000Y268500D02*
X192220Y268280D01*
Y262886D02*
Y268280D01*
X180449Y275051D02*
Y278500D01*
Y275051D02*
X183000Y272500D01*
X192500D01*
X194780Y270220D01*
Y262886D02*
Y270220D01*
X175000Y276500D02*
X180000Y271500D01*
X174614Y236114D02*
X181984D01*
X170000Y231500D02*
X174614Y236114D01*
X197339Y262886D02*
Y269839D01*
X204000Y276500D01*
Y285500D01*
X203000Y286500D02*
X204000Y285500D01*
X199051Y286500D02*
X203000D01*
X189661Y262886D02*
Y268339D01*
X186500Y271500D02*
X189661Y268339D01*
X180000Y271500D02*
X186500D01*
X196783Y167500D02*
Y184835D01*
X196949Y185000D01*
X192449Y189500D02*
X196949Y185000D01*
X177000Y189500D02*
X192449D01*
X170000Y196500D02*
X177000Y189500D01*
X170000Y196500D02*
Y231500D01*
D20*
X146500Y235000D02*
X151000Y239500D01*
X146500Y177000D02*
Y235000D01*
Y177000D02*
X153500Y170000D01*
X209500Y225638D02*
Y228000D01*
X208000Y229500D02*
X209500Y228000D01*
X193250Y225638D02*
Y229250D01*
X194780Y230780D01*
Y236114D01*
X185125Y225638D02*
Y228125D01*
X192220Y231720D02*
Y236114D01*
X177000Y225638D02*
Y228500D01*
X179000Y230500D01*
X189661Y232339D02*
Y236114D01*
X179000Y230500D02*
X187823D01*
X189661Y232339D01*
X185125Y228125D02*
X186000Y229000D01*
X189500D01*
X192220Y231720D01*
X199898Y231102D02*
Y236114D01*
Y231102D02*
X201375Y229625D01*
Y225638D02*
Y229625D01*
X205000Y229500D02*
X208000D01*
X202457Y232043D02*
X205000Y229500D01*
X202457Y232043D02*
Y236114D01*
X181984Y257984D02*
Y262886D01*
X174000Y250000D02*
X181984Y257984D01*
X153500Y250000D02*
X174000D01*
X184543Y262886D02*
Y267457D01*
X153500Y210000D02*
X163000Y219500D01*
Y239000D01*
X187102Y236114D02*
Y244398D01*
X184000Y247500D02*
X187102Y244398D01*
X165500Y247500D02*
X184000D01*
X157500Y239500D02*
X165500Y247500D01*
X151000Y239500D02*
X157500D01*
X202457Y262886D02*
Y267957D01*
X203500Y269000D01*
X207500D01*
X208500Y268000D01*
Y262000D02*
Y268000D01*
X199898Y262886D02*
Y267898D01*
X203000Y271000D01*
X205016Y255484D02*
Y262886D01*
Y255484D02*
X208000Y252500D01*
X212449D01*
X208500Y262000D02*
X209500Y261000D01*
X212000D01*
X212449Y260551D01*
X203000Y271000D02*
X210449D01*
X154000Y290000D02*
X175000Y269000D01*
X183000D01*
X184543Y267457D01*
Y236114D02*
Y241957D01*
X163000Y239000D02*
X168000Y244000D01*
X182500D01*
X184543Y241957D01*
X205618Y116700D02*
Y122882D01*
X204362Y124138D02*
X205618Y122882D01*
X204362Y124138D02*
Y129000D01*
X195382Y116700D02*
Y122382D01*
X197362Y124362D01*
Y129000D01*
D21*
X192500Y153500D02*
X199000D01*
X187000Y148000D02*
X192500Y153500D01*
X187000Y143000D02*
Y148000D01*
X206000Y160500D02*
Y182051D01*
X199000Y153500D02*
X206000Y160500D01*
X203051Y185000D02*
X206000Y182051D01*
X183500Y139500D02*
X187000Y143000D01*
X179551Y139500D02*
X183500D01*
X218000Y221000D02*
Y230500D01*
X209500Y225638D02*
X213362D01*
X218000Y221000D01*
Y190000D02*
Y221000D01*
X213000Y185000D02*
X218000Y190000D01*
X203051Y185000D02*
X213000D01*
X179551Y131051D02*
Y139500D01*
X175138Y126638D02*
X179551Y131051D01*
X169000Y126638D02*
X175138D01*
X188000Y129000D02*
X197362D01*
X180500Y121500D02*
X188000Y129000D01*
X167000Y121500D02*
X180500D01*
X164138Y118638D02*
X167000Y121500D01*
X164138Y115000D02*
Y118638D01*
X153500Y133051D02*
X154087Y133638D01*
X161500D01*
Y126638D02*
X169000D01*
X164138Y108000D02*
X165500D01*
X164138D02*
Y115000D01*
D22*
X237650Y123000D02*
D03*
X227650D02*
D03*
X237650Y225318D02*
D03*
X227650D02*
D03*
X237650Y242363D02*
D03*
X227650D02*
D03*
Y106000D02*
D03*
X237650D02*
D03*
X227650Y208272D02*
D03*
X237650D02*
D03*
Y174000D02*
D03*
X227650D02*
D03*
Y259409D02*
D03*
X237650D02*
D03*
Y140000D02*
D03*
X227650D02*
D03*
Y191227D02*
D03*
X237650D02*
D03*
X227650Y157136D02*
D03*
X237650D02*
D03*
X227650Y293500D02*
D03*
X237650D02*
D03*
Y276500D02*
D03*
X227650D02*
D03*
D23*
X201606Y204500D02*
D03*
D24*
X182394D02*
D03*
D25*
X153500Y210000D02*
D03*
Y190000D02*
D03*
Y170000D02*
D03*
Y230000D02*
D03*
Y250000D02*
D03*
Y270000D02*
D03*
X154000Y290000D02*
D03*
D26*
X153500Y150000D02*
D03*
D27*
X214500Y167500D02*
D03*
X196783D02*
D03*
X214500Y141909D02*
D03*
X196783D02*
D03*
D28*
X174500Y152000D02*
D03*
D29*
Y162000D02*
D03*
Y172000D02*
D03*
D30*
X233500Y129000D02*
D03*
X146500Y129500D02*
D03*
X219000Y105500D02*
D03*
X207000Y148500D02*
D03*
X213500Y154500D02*
D03*
X175500Y195000D02*
D03*
X208500Y189000D02*
D03*
X212000Y296000D02*
D03*
X233000Y267500D02*
D03*
X195500Y273500D02*
D03*
X179000Y260500D02*
D03*
X169500Y259000D02*
D03*
X202500Y257000D02*
D03*
X209000Y248500D02*
D03*
X178000Y250000D02*
D03*
X202500Y243500D02*
D03*
X189500Y243000D02*
D03*
X170500Y235500D02*
D03*
X176500Y240000D02*
D03*
X175500Y232500D02*
D03*
X208000Y277000D02*
D03*
Y283000D02*
D03*
X193500Y249500D02*
D03*
X216500Y180500D02*
D03*
X215000Y129000D02*
D03*
X159000Y108000D02*
D03*
X180500Y105000D02*
D03*
X185500Y159500D02*
D03*
Y176000D02*
D03*
X209500Y214500D02*
D03*
X201500D02*
D03*
X192000D02*
D03*
X185000D02*
D03*
X173000D02*
D03*
X230000Y179500D02*
D03*
X234500Y163500D02*
D03*
X218500Y250000D02*
D03*
X227750Y266250D02*
D03*
X163500Y124500D02*
D03*
X161500D02*
D03*
X159500D02*
D03*
X187500Y255000D02*
D03*
X169500Y239500D02*
D03*
X218500Y240500D02*
D03*
X219500Y265500D02*
D03*
X218500Y276000D02*
D03*
X178000Y286500D02*
D03*
X192000Y268500D02*
D03*
X201500Y278500D02*
D03*
X178000D02*
D03*
X185000Y223000D02*
D03*
X194500D02*
D03*
X165500Y108000D02*
D03*
X169500Y131000D02*
D03*
D31*
X201000Y286500D02*
D03*
X193000Y290000D02*
D03*
M02*
